<svg width="503" height="282" viewBox="0 0 503 282" fill="none" xmlns="http://www.w3.org/2000/svg">
<path d="M219.352 44.073L213.186 37.9074C218.483 32.6105 227.071 32.6105 232.368 37.9074L235.641 41.1805C237.113 42.6519 239.498 42.6519 240.97 41.1805C242.441 39.7091 242.441 37.3236 240.97 35.8522L237.088 31.9701C232.127 27.0095 232.127 18.9668 237.088 14.0062L243.253 20.1718C249.853 26.7719 249.853 37.4729 243.253 44.073C236.653 50.6731 225.952 50.6731 219.352 44.073Z" fill="#E99C4C"/>
<path d="M258.02 82.7412L264.186 88.9068C269.483 83.6099 269.483 75.0219 264.186 69.725L260.913 66.4519C259.441 64.9805 259.441 62.5949 260.913 61.1236C262.384 59.6522 264.77 59.6522 266.241 61.1236L270.123 65.0056C275.084 69.9662 283.126 69.9662 288.087 65.0056L281.921 58.84C275.321 52.2399 264.62 52.2399 258.02 58.84C251.42 65.4401 251.42 76.1411 258.02 82.7412Z" fill="#E99C4C"/>
<path d="M258.325 19.5628L264.49 13.3972C269.787 18.6941 269.787 27.2822 264.49 32.5791L261.217 35.8522C259.746 37.3236 259.746 39.7091 261.217 41.1805C262.689 42.6519 265.074 42.6519 266.545 41.1805L270.428 37.2984C275.388 32.3378 283.431 32.3378 288.392 37.2984L282.226 43.464C275.626 50.0642 264.925 50.0642 258.325 43.464C251.725 36.8639 251.725 26.163 258.325 19.5628Z" fill="#E99C4C"/>
<path d="M219.961 57.9266L213.795 64.0922C219.092 69.3891 227.68 69.3891 232.977 64.0922L236.25 60.8191C237.722 59.3477 240.107 59.3477 241.579 60.8191C243.05 62.2905 243.05 64.676 241.579 66.1474L237.697 70.0294C232.736 74.9901 232.736 83.0328 237.697 87.9934L243.862 81.8278C250.462 75.2277 250.462 64.5267 243.862 57.9266C237.262 51.3264 226.561 51.3264 219.961 57.9266Z" fill="#E99C4C"/>
<path d="M249.255 4.91945C242.075 7.63617 247.444 17.9197 251.247 22.3804C259.185 10.5753 256.621 6.02678 253.253 4.79111C251.973 4.32114 250.531 4.43669 249.255 4.91945Z" fill="#E99C4C"/>
<path d="M205.254 48.9208C207.97 41.7409 218.254 47.1092 222.715 50.9126C210.91 58.8506 206.361 56.2862 205.125 52.9191C204.655 51.6385 204.771 50.1966 205.254 48.9208Z" fill="#E99C4C"/>
<path d="M297.327 52.9915C294.61 60.1715 284.327 54.8031 279.866 50.9997C291.671 43.0617 296.22 45.6261 297.456 48.9932C297.925 50.2738 297.81 51.7157 297.327 52.9915Z" fill="#E99C4C"/>
<path d="M253.326 96.9929C260.506 94.2761 255.137 83.9926 251.334 79.5319C243.396 91.337 245.96 95.8855 249.327 97.1212C250.608 97.5912 252.05 97.4756 253.326 96.9929Z" fill="#E99C4C"/>
<path d="M124.669 213.667H95.067V212.322H98.9915C101.01 212.322 104.486 212.322 104.486 208.847C104.486 207.502 103.477 204.475 95.2913 180.824H66.5867L62.6622 190.912C60.8682 195.62 57.7286 203.354 57.7286 206.941C57.7286 210.528 59.6348 211.761 61.6531 212.322H66.6988V213.667H44.834V212.322H48.1978C52.3465 209.407 57.168 201.112 66.6988 176.228L76.4539 149.886C78.4722 144.505 80.7147 138.565 83.0694 132.624H85.7605L113.568 205.036C115.026 208.959 116.82 212.322 122.65 212.322H124.669V213.667ZM94.7306 179.478L80.8269 142.488C76.1175 155.042 71.7445 166.7 67.0352 179.478H94.7306Z" fill="#fd8d1a"/>
<path d="M202.924 171.184C202.924 157.284 196.757 133.408 169.51 133.408C163.904 133.408 157.512 133.632 150.56 136.659V209.183C154.036 211.089 160.428 212.882 169.174 212.882C192.945 212.882 202.924 193.49 202.924 171.184ZM141.03 140.022C141.03 135.314 138.675 133.969 133.629 133.969H129.817V132.624H147.197C153.476 132.512 163.119 132.063 169.51 132.063C209.764 132.063 213.352 160.423 213.352 170.175C213.352 184.747 207.633 214.227 169.51 214.227C166.483 214.227 162.334 214.003 158.409 213.891C154.933 213.779 151.57 213.667 149.215 213.667H129.817V212.322H133.629C139.796 212.322 141.03 210.864 141.03 206.269V140.022Z" fill="#fd8d1a"/>
<path d="M224.753 132.624H286.871L287.88 149.55H286.535L285.302 140.246C282.162 136.211 269.828 133.969 257.942 133.969C247.627 133.969 245.496 134.978 245.496 140.134V170.511H251.888C273.64 170.511 273.752 166.251 273.752 163.337V160.759H275.098V181.608H273.752V178.806C273.752 175.779 273.64 171.856 251.888 171.856H245.496V206.269C245.496 211.537 248.748 212.322 252.673 212.322C261.979 212.322 272.968 211.425 278.35 210.08C283.956 208.51 287.656 205.372 289.114 201.449L290.347 196.404H291.693L288.441 213.667H224.753V212.322H228.677C234.732 212.322 235.966 210.864 235.966 206.269V140.022C235.966 134.641 232.826 133.969 228.677 133.969H224.753V132.624Z" fill="#fd8d1a"/>
<path d="M371.537 212.546C374.565 212.546 375.798 208.623 375.91 205.708H377.256C377.143 209.071 376.359 215.236 367.613 215.236C358.082 215.236 352.7 205.82 346.645 191.697C341.599 179.927 332.18 171.296 319.734 171.968V206.269C319.734 210.416 321.753 212.322 326.798 212.322H330.947V213.667H299.103V212.322H302.915C308.297 212.322 310.203 210.416 310.203 206.269V140.022C310.203 134.641 308.073 133.969 302.915 133.969H299.103V132.624H311.773C319.286 132.736 328.48 131.391 335.881 131.391C361.894 131.391 366.604 142.712 366.604 151.792C366.604 165.803 352.588 173.425 335.544 173.538C347.766 177.349 354.83 185.083 359.203 192.93C361.446 196.853 363.688 202.009 365.37 205.708C366.604 208.398 368.398 212.546 371.537 212.546ZM356.176 152.352C356.176 139.237 347.766 132.736 334.647 132.736C330.05 132.736 324.332 133.632 319.734 135.762V170.623L325.677 171.184C328.704 171.52 331.844 171.856 334.871 171.856C347.766 171.856 356.176 163.673 356.176 152.352Z" fill="#fd8d1a"/>
<path d="M457.656 213.667H428.055V212.322H431.979C433.997 212.322 437.473 212.322 437.473 208.847C437.473 207.502 436.464 204.475 428.279 180.824H399.574L395.65 190.912C393.856 195.62 390.716 203.354 390.716 206.941C390.716 210.528 392.622 211.761 394.641 212.322H399.686V213.667H377.822V212.322H381.185C385.334 209.407 390.156 201.112 399.686 176.228L409.441 149.886C411.46 144.505 413.702 138.565 416.057 132.624H418.748L446.556 205.036C448.013 208.959 449.807 212.322 455.638 212.322H457.656V213.667ZM427.718 179.478L413.814 142.488C409.105 155.042 404.732 166.7 400.023 179.478H427.718Z" fill="#fd8d1a"/>
<path d="M206.873 240.281C207.459 240.409 207.945 240.519 208.33 240.611C208.733 240.702 209.054 240.785 209.293 240.858C209.549 240.931 209.732 240.996 209.842 241.051C209.971 241.087 210.053 241.124 210.09 241.161C209.925 241.325 209.567 241.765 209.018 242.48C208.486 243.177 207.808 244.084 206.983 245.202C206.158 246.302 205.214 247.576 204.151 249.024C203.106 250.472 201.997 252.03 200.824 253.698C202.254 253.332 203.546 253.075 204.701 252.929C205.874 252.764 206.974 252.635 208 252.544C208.44 252.525 208.853 252.608 209.238 252.791C209.622 252.956 209.925 253.149 210.145 253.369C210.383 253.589 210.511 253.799 210.53 254.001C210.566 254.184 210.438 254.276 210.145 254.276C208.202 254.276 206.341 254.413 204.563 254.688C202.785 254.963 201.099 255.321 199.504 255.761C198.588 257.154 197.662 258.602 196.727 260.105C195.811 261.59 194.921 263.102 194.06 264.642C193.217 266.163 192.41 267.685 191.64 269.206C190.87 270.709 190.183 272.176 189.578 273.605C188.973 275.017 188.46 276.373 188.038 277.675C187.635 278.976 187.36 280.168 187.214 281.249C187.195 281.359 187.131 281.387 187.021 281.332C186.911 281.277 186.774 281.167 186.609 281.002C186.462 280.837 186.306 280.617 186.141 280.342C185.976 280.067 185.839 279.764 185.729 279.434V279.462C185.637 278.839 185.683 278.069 185.866 277.152C186.05 276.217 186.343 275.182 186.746 274.045C187.149 272.89 187.644 271.644 188.231 270.306C188.817 268.968 189.468 267.584 190.183 266.154C190.916 264.706 191.695 263.23 192.52 261.727C193.345 260.224 194.197 258.73 195.077 257.245C192.621 258.345 190.614 259.39 189.056 260.38C187.498 261.351 186.361 262.121 185.646 262.69C185.5 262.781 185.39 262.772 185.316 262.662C185.261 262.552 185.316 262.396 185.481 262.195C185.958 261.663 186.544 261.104 187.241 260.517C187.956 259.913 188.753 259.308 189.633 258.703C190.531 258.098 191.494 257.511 192.52 256.943C193.547 256.375 194.619 255.852 195.737 255.376C195.939 254.826 196.067 254.358 196.122 253.973C196.195 253.57 196.232 253.213 196.232 252.901C196.232 252.04 196.058 251.288 195.71 250.646C195.38 249.987 194.912 249.446 194.307 249.024C193.703 248.584 192.988 248.254 192.163 248.034C191.338 247.814 190.449 247.704 189.496 247.704C188.396 247.704 187.278 247.842 186.141 248.117C185.023 248.374 183.932 248.795 182.869 249.382L180.835 250.564L179.9 251.169C179.808 251.224 179.771 251.224 179.79 251.169C179.79 251.114 179.826 251.031 179.9 250.921C179.955 250.811 180.028 250.692 180.12 250.564C180.211 250.436 180.303 250.326 180.395 250.234C181.238 249.574 182.365 248.768 183.777 247.814C185.188 246.861 186.865 245.862 188.808 244.817C190.751 243.773 192.951 242.737 195.407 241.71C197.882 240.684 200.604 239.767 203.573 238.961C206.543 238.136 209.751 237.476 213.197 236.981C216.661 236.468 220.355 236.211 224.278 236.211C225.597 236.211 226.908 236.239 228.209 236.294C229.529 236.349 230.913 236.44 232.361 236.569C232.691 236.624 232.966 236.761 233.186 236.981C233.406 237.183 233.58 237.43 233.709 237.724C233.837 238.017 233.919 238.328 233.956 238.658C233.993 238.988 234.002 239.3 233.984 239.593C232.59 239.355 230.858 239.135 228.787 238.933C226.716 238.732 224.424 238.631 221.913 238.631C215.662 238.631 209.567 239.382 203.628 240.886C197.689 242.389 191.723 244.625 185.729 247.594L187.901 247.292C188.176 247.292 188.497 247.283 188.863 247.265C189.23 247.228 189.542 247.21 189.798 247.21C191.136 247.21 192.264 247.402 193.18 247.787C194.115 248.172 194.866 248.676 195.435 249.299C196.021 249.904 196.452 250.591 196.727 251.361C197.02 252.131 197.213 252.91 197.304 253.698C198.294 252.14 199.247 250.674 200.164 249.299C201.099 247.906 201.96 246.66 202.749 245.56C203.537 244.442 204.242 243.479 204.866 242.673C205.489 241.848 205.993 241.215 206.378 240.776L206.873 240.281Z" fill="#fd8d1a"/>
<path d="M217.336 259.72C218.198 259.793 218.867 260.041 219.343 260.462C219.838 260.866 220.168 261.379 220.333 262.002C220.498 262.625 220.535 263.34 220.443 264.147C220.351 264.935 220.168 265.742 219.893 266.566C219.618 267.391 219.261 268.207 218.821 269.014C218.399 269.82 217.941 270.553 217.446 271.213C216.859 272.001 216.209 272.799 215.494 273.605C214.779 274.412 213.908 275.2 212.882 275.97C214.037 276.098 215.146 275.942 216.209 275.503C217.29 275.063 218.317 274.43 219.288 273.605C220.278 272.78 221.222 271.809 222.12 270.691C223.018 269.573 223.871 268.39 224.677 267.144C224.879 266.942 225.062 266.695 225.227 266.401C225.411 266.09 225.585 265.76 225.75 265.412C225.951 265.265 226.116 265.265 226.245 265.412C226.373 265.54 226.373 265.705 226.245 265.907C226.08 266.163 225.924 266.438 225.777 266.731C225.649 267.006 225.493 267.29 225.31 267.584C224.393 268.959 223.431 270.278 222.423 271.543C221.415 272.79 220.361 273.853 219.261 274.733C218.161 275.612 217.006 276.236 215.796 276.602C214.605 276.969 213.358 276.951 212.057 276.547H212.002C211.507 276.877 211.021 277.134 210.545 277.317C210.068 277.501 209.564 277.574 209.032 277.537C207.859 277.482 206.989 277.171 206.42 276.602C205.87 276.016 205.54 275.292 205.43 274.43C205.32 273.55 205.385 272.597 205.623 271.571C205.861 270.544 206.191 269.545 206.613 268.574C207.089 267.474 207.694 266.383 208.427 265.302C209.161 264.202 209.986 263.23 210.902 262.387C211.837 261.526 212.845 260.847 213.927 260.352C215.008 259.858 216.145 259.647 217.336 259.72ZM216.759 270.718C217.034 270.333 217.336 269.838 217.666 269.234C217.996 268.61 218.298 267.96 218.573 267.281C218.867 266.585 219.087 265.897 219.233 265.219C219.398 264.523 219.453 263.899 219.398 263.349C219.362 262.781 219.178 262.323 218.848 261.975C218.518 261.626 217.996 261.452 217.281 261.452C216.621 261.452 215.897 261.736 215.109 262.305C214.339 262.873 213.468 263.716 212.497 264.834C212.13 265.329 211.809 265.907 211.534 266.566C211.26 267.208 211.04 267.886 210.875 268.601C210.728 269.316 210.627 270.04 210.572 270.773C210.535 271.506 210.554 272.194 210.627 272.835C210.719 273.459 210.865 274.018 211.067 274.513C211.269 274.989 211.544 275.338 211.892 275.558L212.002 275.613C212.149 275.521 212.304 275.402 212.469 275.255C212.634 275.108 212.808 274.962 212.992 274.815C213.615 274.284 214.247 273.669 214.889 272.973C215.549 272.258 216.172 271.506 216.759 270.718ZM211.067 276.052C210.645 275.704 210.316 275.292 210.077 274.815C209.839 274.32 209.665 273.798 209.555 273.248C209.445 272.698 209.381 272.148 209.362 271.598C209.362 271.03 209.381 270.507 209.417 270.031C209.142 270.837 208.913 271.635 208.73 272.423C208.547 273.193 208.455 273.889 208.455 274.513C208.473 275.118 208.602 275.612 208.84 275.997C209.078 276.364 209.472 276.547 210.022 276.547C210.096 276.547 210.206 276.529 210.352 276.492C210.517 276.437 210.783 276.327 211.15 276.162L211.067 276.052Z" fill="#fd8d1a"/>
<path d="M241.218 266.319C240.888 266.759 240.521 267.263 240.118 267.831C239.715 268.399 239.284 268.968 238.826 269.536C238.368 270.086 237.882 270.599 237.369 271.076C236.855 271.552 236.324 271.91 235.774 272.148C235.297 272.35 234.784 272.451 234.234 272.451C233.684 272.451 233.171 272.35 232.694 272.148C232.236 271.946 231.851 271.635 231.539 271.213C231.246 270.792 231.127 270.26 231.182 269.618C231.2 268.995 231.329 268.317 231.567 267.584C231.805 266.851 232.117 266.09 232.502 265.302C232.905 264.513 233.354 263.734 233.849 262.965C234.362 262.176 234.894 261.425 235.444 260.71L235.031 260.627C234.903 260.701 234.555 260.939 233.987 261.342C233.437 261.727 232.731 262.323 231.869 263.129C231.026 263.936 230.064 264.972 228.982 266.236C227.901 267.483 226.783 268.995 225.628 270.773C225.243 271.47 224.849 272.176 224.446 272.89C224.061 273.587 223.703 274.238 223.373 274.843C223.043 275.429 222.768 275.933 222.548 276.355C222.31 276.758 222.163 277.024 222.108 277.152C222.053 277.244 221.852 277.308 221.504 277.345C221.137 277.4 220.761 277.418 220.376 277.4C219.991 277.4 219.643 277.372 219.331 277.317C219.02 277.244 218.873 277.152 218.891 277.042C218.91 276.987 219.075 276.685 219.386 276.135C219.698 275.567 220.083 274.879 220.541 274.073C220.999 273.248 221.494 272.368 222.026 271.433C222.558 270.498 223.052 269.618 223.511 268.794C223.896 268.06 224.354 267.208 224.886 266.236C225.417 265.247 225.93 264.303 226.425 263.404C226.939 262.488 227.378 261.691 227.745 261.012C228.13 260.316 228.368 259.885 228.46 259.72C228.515 259.628 228.717 259.564 229.065 259.528C229.431 259.473 229.807 259.454 230.192 259.473C230.595 259.491 230.953 259.528 231.265 259.583C231.576 259.638 231.714 259.72 231.677 259.83C231.64 259.867 231.503 260.087 231.265 260.49C231.045 260.893 230.76 261.406 230.412 262.03C230.064 262.653 229.679 263.349 229.257 264.119C228.836 264.889 228.405 265.65 227.965 266.401V266.511V266.456C227.965 266.42 227.983 266.401 228.02 266.401C228.643 265.632 229.276 264.88 229.917 264.147C230.577 263.395 231.219 262.717 231.842 262.112C232.483 261.507 233.088 260.994 233.657 260.572C234.243 260.132 234.756 259.83 235.196 259.665C236.296 259.793 237.066 260.013 237.506 260.325C237.964 260.618 238.184 260.976 238.166 261.397C238.129 261.837 237.891 262.405 237.451 263.102C237.011 263.78 236.507 264.513 235.939 265.302C235.371 266.09 234.821 266.887 234.289 267.694C233.776 268.5 233.428 269.261 233.244 269.976C233.153 270.306 233.134 270.572 233.189 270.773C233.263 270.975 233.354 271.14 233.464 271.268C233.592 271.378 233.73 271.461 233.877 271.516C234.042 271.552 234.179 271.58 234.289 271.598C234.802 271.745 235.361 271.626 235.966 271.241C236.571 270.837 237.158 270.324 237.726 269.701C238.313 269.059 238.862 268.381 239.376 267.666C239.907 266.933 240.356 266.319 240.723 265.824C240.943 265.677 241.108 265.677 241.218 265.824C241.346 265.952 241.346 266.117 241.218 266.319Z" fill="#fd8d1a"/>
<path d="M274.137 278.007C273.878 278.007 273.658 277.907 273.478 277.687C273.298 277.468 273.199 277.228 273.199 276.849C273.199 274.512 276.913 266.144 280.688 259.493C281.167 258.635 281.547 257.916 281.547 257.856C281.387 257.696 275.156 257.077 268.365 257.077C267.287 257.077 267.187 257.097 266.049 257.117C264.611 259.274 262.454 262.849 259.119 268.72C259.498 269.12 259.498 269.1 259.498 269.2C259.498 269.399 259.219 269.799 258.32 271.177C255.284 275.91 254.765 277.568 253.826 277.568C253.267 277.568 252.868 277.288 252.868 276.429C252.868 271.876 261.995 257.516 262.094 257.237C262.094 257.197 261.815 257.197 261.375 257.197C258.999 257.197 255.244 257.336 255.164 257.876C255.124 258.075 255.044 258.175 254.845 258.175C254.345 258.175 253.507 257.856 253.507 257.177C253.507 256.278 254.485 255.519 260.796 255.239C262.474 255.16 263.413 255.08 263.492 254.98C263.552 254.92 264.491 253.442 265.589 251.685C270.303 244.175 274.996 237.185 275.495 236.307C275.915 235.588 276.394 235.288 276.953 235.288C277.632 235.288 278.391 235.827 278.391 236.486C278.391 238.084 267.327 255 267.327 255.1C267.327 255.1 268.725 255.18 270.403 255.239C279.37 255.559 281.307 256.358 282.365 256.358C282.545 256.358 282.625 256.078 283.783 254.101C287.578 247.63 291.393 241.978 294.967 237.485C297.204 234.709 297.544 234.449 298.303 234.449C299.201 234.449 299.9 235.088 299.9 235.687C299.9 235.967 299.741 236.227 299.361 236.586C298.003 237.844 291.872 246.692 286.919 254.8C286 256.338 285.701 256.817 285.701 256.977C285.701 257.137 286.759 257.376 287.378 257.536C290.634 258.515 291.572 259.254 291.572 260.033C291.572 260.292 291.373 260.372 291.193 260.372C291.033 260.372 290.913 260.272 290.813 260.013C290.614 259.394 285.481 258.355 284.862 258.355C284.802 258.355 284.762 258.355 284.762 258.375C284.542 258.615 280.967 264.846 279.689 267.222C278.511 269.439 275.375 275.71 275.375 275.93H275.395C275.515 275.93 275.895 275.031 276.274 275.031C276.434 275.031 276.614 275.131 276.614 275.331C276.614 275.97 275.136 278.007 274.137 278.007Z" fill="#fd8d1a"/>
<path d="M294.759 277.785C293.805 277.858 292.898 277.739 292.037 277.427C291.193 277.134 290.46 276.694 289.837 276.107C289.232 275.503 288.774 274.778 288.462 273.935C288.151 273.074 288.05 272.13 288.16 271.103C288.251 270.205 288.48 269.279 288.847 268.326C289.214 267.355 289.681 266.429 290.249 265.549C290.836 264.651 291.487 263.817 292.202 263.047C292.935 262.277 293.695 261.626 294.484 261.095C295.29 260.545 296.115 260.142 296.958 259.885C297.802 259.628 298.617 259.573 299.405 259.72C299.974 259.848 300.404 260.096 300.698 260.462C301.009 260.829 301.257 261.278 301.44 261.81C301.605 262.415 301.596 263.074 301.413 263.789C301.248 264.504 300.945 265.219 300.505 265.934C300.065 266.649 299.506 267.336 298.828 267.996C298.168 268.638 297.426 269.197 296.601 269.673C295.794 270.132 294.933 270.48 294.016 270.718C293.118 270.938 292.211 270.984 291.294 270.856C291.294 270.984 291.294 271.112 291.294 271.241C291.294 271.351 291.276 271.47 291.239 271.598C291.203 272.203 291.258 272.79 291.404 273.358C291.551 273.926 291.789 274.439 292.119 274.898C292.449 275.338 292.871 275.704 293.384 275.997C293.915 276.272 294.557 276.437 295.309 276.492C295.822 276.529 296.372 276.437 296.958 276.217C297.545 275.997 298.131 275.732 298.718 275.42C299.781 274.723 301.009 273.614 302.402 272.093C303.814 270.572 305.308 268.546 306.884 266.017C307.104 265.87 307.278 265.87 307.407 266.017C307.535 266.145 307.526 266.31 307.379 266.511C306.976 267.171 306.508 267.905 305.977 268.711C305.445 269.499 304.859 270.306 304.217 271.131C303.594 271.937 302.916 272.735 302.182 273.523C301.468 274.293 300.707 274.989 299.9 275.613C299.112 276.217 298.287 276.721 297.426 277.125C296.564 277.51 295.675 277.73 294.759 277.785ZM300.588 262.855C300.624 262.671 300.624 262.488 300.588 262.305C300.569 262.103 300.496 261.929 300.368 261.782C300.258 261.617 300.093 261.498 299.873 261.425C299.671 261.351 299.415 261.333 299.103 261.37C298.755 261.406 298.361 261.571 297.921 261.865C297.481 262.158 297.022 262.534 296.546 262.992C296.069 263.432 295.584 263.936 295.089 264.504C294.612 265.073 294.154 265.641 293.714 266.209C293.292 266.759 292.916 267.29 292.587 267.804C292.257 268.317 292.009 268.757 291.844 269.124C291.752 269.325 291.67 269.518 291.597 269.701C291.542 269.866 291.487 270.04 291.432 270.223C292.55 270.242 293.622 270.086 294.649 269.756C295.694 269.408 296.628 268.913 297.453 268.271C298.296 267.611 298.993 266.823 299.543 265.907C300.093 264.99 300.441 263.973 300.588 262.855Z" fill="#fd8d1a"/>
<path d="M322.61 266.319C322.28 266.759 321.913 267.263 321.51 267.831C321.107 268.399 320.676 268.968 320.218 269.536C319.759 270.086 319.274 270.599 318.76 271.076C318.247 271.552 317.716 271.91 317.166 272.148C316.689 272.35 316.176 272.451 315.626 272.451C315.076 272.451 314.563 272.35 314.086 272.148C313.628 271.946 313.243 271.635 312.931 271.213C312.638 270.792 312.519 270.26 312.574 269.618C312.592 268.995 312.721 268.317 312.959 267.584C313.197 266.851 313.509 266.09 313.894 265.302C314.297 264.513 314.746 263.734 315.241 262.965C315.754 262.176 316.286 261.425 316.836 260.71L316.423 260.627C316.295 260.701 315.947 260.939 315.378 261.342C314.829 261.727 314.123 262.323 313.261 263.129C312.418 263.936 311.456 264.972 310.374 266.236C309.293 267.483 308.175 268.995 307.02 270.773C306.635 271.47 306.241 272.176 305.837 272.89C305.453 273.587 305.095 274.238 304.765 274.843C304.435 275.429 304.16 275.933 303.94 276.355C303.702 276.758 303.555 277.024 303.5 277.152C303.445 277.244 303.244 277.308 302.895 277.345C302.529 277.4 302.153 277.418 301.768 277.4C301.383 277.4 301.035 277.372 300.723 277.317C300.412 277.244 300.265 277.152 300.283 277.042C300.302 276.987 300.467 276.685 300.778 276.135C301.09 275.567 301.475 274.879 301.933 274.073C302.391 273.248 302.886 272.368 303.418 271.433C303.949 270.498 304.444 269.618 304.903 268.794C305.288 268.06 305.746 267.208 306.277 266.236C306.809 265.247 307.322 264.303 307.817 263.404C308.33 262.488 308.77 261.691 309.137 261.012C309.522 260.316 309.76 259.885 309.852 259.72C309.907 259.628 310.108 259.564 310.457 259.528C310.823 259.473 311.199 259.454 311.584 259.473C311.987 259.491 312.345 259.528 312.656 259.583C312.968 259.638 313.105 259.72 313.069 259.83C313.032 259.867 312.895 260.087 312.656 260.49C312.436 260.893 312.152 261.406 311.804 262.03C311.456 262.653 311.071 263.349 310.649 264.119C310.228 264.889 309.797 265.65 309.357 266.401V266.511V266.456C309.357 266.42 309.375 266.401 309.412 266.401C310.035 265.632 310.668 264.88 311.309 264.147C311.969 263.395 312.611 262.717 313.234 262.112C313.875 261.507 314.48 260.994 315.048 260.572C315.635 260.132 316.148 259.83 316.588 259.665C317.688 259.793 318.458 260.013 318.898 260.325C319.356 260.618 319.576 260.976 319.558 261.397C319.521 261.837 319.283 262.405 318.843 263.102C318.403 263.78 317.899 264.513 317.331 265.302C316.762 266.09 316.212 266.887 315.681 267.694C315.168 268.5 314.819 269.261 314.636 269.976C314.544 270.306 314.526 270.572 314.581 270.773C314.654 270.975 314.746 271.14 314.856 271.268C314.984 271.378 315.122 271.461 315.268 271.516C315.433 271.552 315.571 271.58 315.681 271.598C316.194 271.745 316.753 271.626 317.358 271.241C317.963 270.837 318.55 270.324 319.118 269.701C319.704 269.059 320.254 268.381 320.768 267.666C321.299 266.933 321.748 266.319 322.115 265.824C322.335 265.677 322.5 265.677 322.61 265.824C322.738 265.952 322.738 266.117 322.61 266.319Z" fill="#fd8d1a"/>
</svg>
